# xmcd
#
# Track frame offsets: 
#        182
#        20915
#        44535
#        63532
#        80330
#
# Disc length: 1457 seconds
#
# Revision: 2
# Processed by: cddbd v1.5.2PL0 Copyright (c) Steve Scherf et al.
# Submitted via: ExactAudioCopy v0.95a4
#
DISCID=4005af05
DTITLE=The Jeff Healey Band - Hell To Pay (Sampler)
DYEAR=1990
DGENRE=Rock
TTITLE0=I Think I Love You Too Much (Single Edit)
TTITLE1=While My Guitar Gently Weeps
TTITLE2=Full Circle
TTITLE3=Let It All Go
TTITLE4=I Think I Love You Too Much (Album Version)
EXTD=Year: 1990\n\n\n                                                 
EXTD=From the new album "Hell To Pay"\n\n                        
EXTD=                For Promotional Use Only. Not For Sale\n
EXTD=\n                                                               
EXTD=(Printed in U.S.A.]\n\n                                        
EXTD=    Arista ASCD 9954 Promo 1990\n\n\n\nThe Band -      
EXTD=                 Jeff Healey  -  Lead Vocals, Guitar\n\n
EXTD=                                    Joe Rockman  -  Bas
EXTD=s Guitar, Backing Vocals\n\n                                     
EXTD=Tom Stephen  -  Drums\n\n\n\n                           
EXTD=                     www.jeffhealey.com\n\n            
EXTD=                                www.jeffhealeyband.com
EXTT0=
EXTT1=
EXTT2=
EXTT3=
EXTT4=
PLAYORDER=
